<?xml version="1.0" encoding="UTF-8"?>
<!--
  Generic city skyline — abstract blocky silhouette placeholder.
  Six depth tones on a coal (#0a0a0a) background, drawn back-to-front.
  Purely decorative/generic; not modeled on any real place. Swap this
  asset per-brand if you want a skyline matching your own city/identity.
-->
<svg xmlns="http://www.w3.org/2000/svg" viewBox="0 0 1200 200" width="1200" height="200">
  <rect x="0" y="0" width="1200" height="200" fill="#0a0a0a"/>
    <rect x="-20" y="152" width="39" height="48" fill="#1c1c1c"/>
  <rect x="29" y="159" width="32" height="41" fill="#1c1c1c"/>
  <rect x="70" y="152" width="64" height="48" fill="#1c1c1c"/>
  <rect x="137" y="170" width="62" height="30" fill="#1c1c1c"/>
  <rect x="208" y="153" width="40" height="47" fill="#1c1c1c"/>
  <rect x="253" y="155" width="36" height="45" fill="#1c1c1c"/>
  <rect x="299" y="155" width="59" height="45" fill="#1c1c1c"/>
  <rect x="366" y="166" width="64" height="34" fill="#1c1c1c"/>
  <rect x="435" y="166" width="64" height="34" fill="#1c1c1c"/>
  <rect x="509" y="170" width="48" height="30" fill="#1c1c1c"/>
  <rect x="560" y="152" width="34" height="48" fill="#1c1c1c"/>
  <rect x="596" y="170" width="43" height="30" fill="#1c1c1c"/>
  <rect x="645" y="151" width="54" height="49" fill="#1c1c1c"/>
  <rect x="707" y="158" width="51" height="42" fill="#1c1c1c"/>
  <rect x="767" y="159" width="32" height="41" fill="#1c1c1c"/>
  <rect x="802" y="166" width="26" height="34" fill="#1c1c1c"/>
  <rect x="837" y="162" width="37" height="38" fill="#1c1c1c"/>
  <rect x="882" y="161" width="64" height="39" fill="#1c1c1c"/>
  <rect x="954" y="158" width="56" height="42" fill="#1c1c1c"/>
  <rect x="1017" y="152" width="58" height="48" fill="#1c1c1c"/>
  <rect x="1083" y="163" width="61" height="37" fill="#1c1c1c"/>
  <rect x="1151" y="162" width="25" height="38" fill="#1c1c1c"/>
  <rect x="1180" y="153" width="44" height="47" fill="#1c1c1c"/>
  <rect x="-20" y="145" width="33" height="55" fill="#242424"/>
  <rect x="22" y="137" width="35" height="63" fill="#242424"/>
  <rect x="65" y="146" width="46" height="54" fill="#242424"/>
  <rect x="121" y="142" width="31" height="58" fill="#242424"/>
  <rect x="155" y="136" width="29" height="64" fill="#242424"/>
  <rect x="193" y="158" width="40" height="42" fill="#242424"/>
  <rect x="238" y="152" width="45" height="48" fill="#242424"/>
  <rect x="289" y="154" width="37" height="46" fill="#242424"/>
  <rect x="330" y="131" width="36" height="69" fill="#242424"/>
  <rect x="373" y="139" width="47" height="61" fill="#242424"/>
  <rect x="428" y="147" width="37" height="53" fill="#242424"/>
  <rect x="474" y="151" width="59" height="49" fill="#242424"/>
  <rect x="541" y="132" width="34" height="68" fill="#242424"/>
  <rect x="578" y="159" width="35" height="41" fill="#242424"/>
  <rect x="621" y="135" width="33" height="65" fill="#242424"/>
  <rect x="658" y="154" width="36" height="46" fill="#242424"/>
  <rect x="696" y="145" width="39" height="55" fill="#242424"/>
  <rect x="743" y="140" width="32" height="60" fill="#242424"/>
  <rect x="785" y="140" width="27" height="60" fill="#242424"/>
  <rect x="817" y="135" width="63" height="65" fill="#242424"/>
  <rect x="890" y="137" width="42" height="63" fill="#242424"/>
  <rect x="939" y="138" width="57" height="62" fill="#242424"/>
  <rect x="1003" y="132" width="58" height="68" fill="#242424"/>
  <rect x="1068" y="147" width="54" height="53" fill="#242424"/>
  <rect x="1124" y="131" width="30" height="69" fill="#242424"/>
  <rect x="1160" y="151" width="51" height="49" fill="#242424"/>
  <rect x="1216" y="135" width="51" height="65" fill="#242424"/>
  <rect x="-20" y="146" width="58" height="54" fill="#2c2c2c"/>
  <rect x="42" y="145" width="34" height="55" fill="#2c2c2c"/>
  <rect x="81" y="139" width="61" height="61" fill="#2c2c2c"/>
  <rect x="144" y="115" width="61" height="85" fill="#2c2c2c"/>
  <rect x="214" y="133" width="30" height="67" fill="#2c2c2c"/>
  <rect x="252" y="136" width="38" height="64" fill="#2c2c2c"/>
  <rect x="294" y="115" width="61" height="85" fill="#2c2c2c"/>
  <rect x="363" y="127" width="55" height="73" fill="#2c2c2c"/>
  <rect x="427" y="142" width="43" height="58" fill="#2c2c2c"/>
  <rect x="475" y="131" width="50" height="69" fill="#2c2c2c"/>
  <rect x="534" y="124" width="55" height="76" fill="#2c2c2c"/>
  <rect x="594" y="126" width="42" height="74" fill="#2c2c2c"/>
  <rect x="642" y="115" width="45" height="85" fill="#2c2c2c"/>
  <rect x="690" y="123" width="47" height="77" fill="#2c2c2c"/>
  <rect x="743" y="127" width="47" height="73" fill="#2c2c2c"/>
  <rect x="796" y="119" width="42" height="81" fill="#2c2c2c"/>
  <rect x="844" y="136" width="29" height="64" fill="#2c2c2c"/>
  <rect x="880" y="123" width="58" height="77" fill="#2c2c2c"/>
  <rect x="942" y="121" width="55" height="79" fill="#2c2c2c"/>
  <rect x="1002" y="122" width="45" height="78" fill="#2c2c2c"/>
  <rect x="1051" y="119" width="50" height="81" fill="#2c2c2c"/>
  <rect x="1109" y="122" width="27" height="78" fill="#2c2c2c"/>
  <rect x="1140" y="138" width="44" height="62" fill="#2c2c2c"/>
  <rect x="1188" y="125" width="54" height="75" fill="#2c2c2c"/>
  <rect x="-20" y="128" width="35" height="72" fill="#383838"/>
  <rect x="24" y="125" width="36" height="75" fill="#383838"/>
  <rect x="68" y="94" width="62" height="106" fill="#383838"/>
  <rect x="138" y="102" width="49" height="98" fill="#383838"/>
  <rect x="193" y="92" width="39" height="108" fill="#383838"/>
  <rect x="237" y="111" width="46" height="89" fill="#383838"/>
  <rect x="292" y="97" width="46" height="103" fill="#383838"/>
  <rect x="348" y="113" width="60" height="87" fill="#383838"/>
  <rect x="414" y="107" width="40" height="93" fill="#383838"/>
  <rect x="463" y="120" width="52" height="80" fill="#383838"/>
  <rect x="519" y="95" width="38" height="105" fill="#383838"/>
  <rect x="562" y="112" width="48" height="88" fill="#383838"/>
  <rect x="614" y="108" width="58" height="92" fill="#383838"/>
  <rect x="679" y="101" width="35" height="99" fill="#383838"/>
  <rect x="720" y="114" width="39" height="86" fill="#383838"/>
  <rect x="768" y="110" width="37" height="90" fill="#383838"/>
  <rect x="814" y="118" width="57" height="82" fill="#383838"/>
  <rect x="873" y="96" width="26" height="104" fill="#383838"/>
  <rect x="908" y="108" width="53" height="92" fill="#383838"/>
  <rect x="965" y="105" width="33" height="95" fill="#383838"/>
  <rect x="1006" y="113" width="30" height="87" fill="#383838"/>
  <rect x="1039" y="90" width="55" height="110" fill="#383838"/>
  <rect x="1098" y="130" width="38" height="70" fill="#383838"/>
  <rect x="1143" y="94" width="59" height="106" fill="#383838"/>
  <rect x="1205" y="102" width="29" height="98" fill="#383838"/>
  <rect x="-20" y="99" width="55" height="101" fill="#4a4a4a"/>
  <rect x="40" y="99" width="33" height="101" fill="#4a4a4a"/>
  <rect x="82" y="66" width="26" height="134" fill="#4a4a4a"/>
  <rect x="117" y="65" width="62" height="135" fill="#4a4a4a"/>
  <rect x="181" y="95" width="39" height="105" fill="#4a4a4a"/>
  <rect x="228" y="103" width="48" height="97" fill="#4a4a4a"/>
  <rect x="281" y="78" width="31" height="122" fill="#4a4a4a"/>
  <rect x="320" y="92" width="47" height="108" fill="#4a4a4a"/>
  <rect x="373" y="83" width="36" height="117" fill="#4a4a4a"/>
  <rect x="418" y="72" width="55" height="128" fill="#4a4a4a"/>
  <rect x="476" y="87" width="26" height="113" fill="#4a4a4a"/>
  <rect x="510" y="90" width="59" height="110" fill="#4a4a4a"/>
  <rect x="579" y="64" width="54" height="136" fill="#4a4a4a"/>
  <rect x="639" y="101" width="48" height="99" fill="#4a4a4a"/>
  <rect x="692" y="76" width="64" height="124" fill="#4a4a4a"/>
  <rect x="765" y="61" width="64" height="139" fill="#4a4a4a"/>
  <rect x="834" y="71" width="53" height="129" fill="#4a4a4a"/>
  <rect x="896" y="83" width="43" height="117" fill="#4a4a4a"/>
  <rect x="949" y="73" width="29" height="127" fill="#4a4a4a"/>
  <rect x="983" y="82" width="37" height="118" fill="#4a4a4a"/>
  <rect x="1023" y="93" width="43" height="107" fill="#4a4a4a"/>
  <rect x="1071" y="88" width="64" height="112" fill="#4a4a4a"/>
  <rect x="1142" y="79" width="40" height="121" fill="#4a4a4a"/>
  <rect x="1191" y="82" width="38" height="118" fill="#4a4a4a"/>
  <rect x="-20" y="51" width="31" height="149" fill="#717171"/>
  <rect x="18" y="42" width="57" height="158" fill="#717171"/>
  <rect x="85" y="65" width="49" height="135" fill="#717171"/>
  <rect x="144" y="34" width="48" height="166" fill="#717171"/>
  <rect x="199" y="53" width="32" height="147" fill="#717171"/>
  <rect x="234" y="41" width="64" height="159" fill="#717171"/>
  <rect x="307" y="64" width="62" height="136" fill="#717171"/>
  <rect x="375" y="51" width="24" height="149" fill="#717171"/>
  <rect x="408" y="75" width="43" height="125" fill="#717171"/>
  <rect x="459" y="60" width="42" height="140" fill="#717171"/>
  <rect x="507" y="79" width="32" height="121" fill="#717171"/>
  <rect x="548" y="48" width="41" height="152" fill="#717171"/>
  <rect x="592" y="79" width="43" height="121" fill="#717171"/>
  <rect x="637" y="33" width="48" height="167" fill="#717171"/>
  <rect x="690" y="31" width="49" height="169" fill="#717171"/>
  <rect x="747" y="63" width="54" height="137" fill="#717171"/>
  <rect x="807" y="68" width="54" height="132" fill="#717171"/>
  <rect x="863" y="32" width="40" height="168" fill="#717171"/>
  <rect x="910" y="37" width="54" height="163" fill="#717171"/>
  <rect x="968" y="58" width="42" height="142" fill="#717171"/>
  <rect x="1019" y="32" width="29" height="168" fill="#717171"/>
  <rect x="1050" y="58" width="51" height="142" fill="#717171"/>
  <rect x="1105" y="32" width="36" height="168" fill="#717171"/>
  <rect x="1146" y="64" width="54" height="136" fill="#717171"/>
  <rect x="1210" y="54" width="53" height="146" fill="#717171"/>
</svg>
